<svg xmlns="http://www.w3.org/2000/svg" viewBox="0 0 316.39 316.39"><g id="Layer_2" data-name="Layer 2"><g id="Layer_1-2" data-name="Layer 1"><path d="M316.39,255.21A61.18,61.18,0,0,1,212,298.47a61.84,61.84,0,0,1-8.56-10.7,137.51,137.51,0,0,0,84.38-84.38,61.37,61.37,0,0,1,10.7,8.56A60.75,60.75,0,0,1,316.39,255.21Z"/><path d="M113,28.62A137.53,137.53,0,0,0,28.62,113a61.84,61.84,0,0,1-10.7-8.56,61.18,61.18,0,1,1,86.52-86.52A61.84,61.84,0,0,1,113,28.62Z"/><path d="M113,287.77a61.84,61.84,0,0,1-8.56,10.7,61.18,61.18,0,1,1-75.82-95.08A137.53,137.53,0,0,0,113,287.77Z"/><path d="M316.39,61.18a60.75,60.75,0,0,1-17.92,43.26,61.84,61.84,0,0,1-10.7,8.56,137.55,137.55,0,0,0-84.38-84.39A61.78,61.78,0,0,1,212,17.92,61.18,61.18,0,0,1,316.39,61.18Z"/><rect x="89.14" y="84.91" width="142.31" height="142.31" rx="30.9" transform="translate(-63.41 159.06) rotate(-45)"/></g></g></svg>