<?xml version="1.0" encoding="utf-8"?>
<!-- Generator: Adobe Illustrator 20.1.0, SVG Export Plug-In . SVG Version: 6.00 Build 0)  -->
<svg version="1.1" id="Layer_1" xmlns="http://www.w3.org/2000/svg" xmlns:xlink="http://www.w3.org/1999/xlink" x="0px" y="0px"
	 viewBox="0 0 240 240" style="enable-background:new 0 0 240 240;" xml:space="preserve">
<g>
	<g>
		<path d="M82,178.3c4.9-4.6,8-11.1,8-18.3c0-13.8-11.2-25-25-25s-25,11.2-25,25c0,7.2,3.1,13.8,8,18.3C31.6,185,20,201.2,20,220h10
			c0-19.3,15.7-35,35-35s35,15.7,35,35h10C110,201.2,98.4,185,82,178.3z M50,160c0-8.3,6.7-15,15-15s15,6.7,15,15s-6.7,15-15,15
			S50,168.3,50,160z"/>
	</g>
	<g>
		<path d="M175,70c19.3,0,35,15.7,35,35h10c0-18.8-11.6-35-28-41.7c4.9-4.6,8-11.1,8-18.3c0-13.8-11.2-25-25-25s-25,11.2-25,25
			c0,7.2,3.1,13.8,8,18.3c-16.4,6.7-28,22.9-28,41.7h10C140,85.7,155.7,70,175,70z M160,45c0-8.3,6.7-15,15-15s15,6.7,15,15
			s-6.7,15-15,15S160,53.3,160,45z"/>
	</g>
	<g>
		<path d="M95,50H35c-8.3,0-15,6.7-15,15v25c0,8.3,6.7,15,15,15h22.5l7.5,15l7.5-15H95c8.3,0,15-6.7,15-15V65
			C110,56.7,103.3,50,95,50z M100,90c0,2.8-2.2,5-5,5H35c-2.8,0-5-2.2-5-5V65c0-2.8,2.2-5,5-5h60c2.8,0,5,2.2,5,5V90z"/>
	</g>
	<g>
		<path d="M205,135h-22.5l-7.5-15l-7.5,15H145c-8.3,0-15,6.7-15,15v25c0,8.3,6.7,15,15,15h60c8.3,0,15-6.7,15-15v-25
			C220,141.7,213.3,135,205,135z M210,175c0,2.8-2.2,5-5,5h-60c-2.8,0-5-2.2-5-5v-25c0-2.8,2.2-5,5-5h60c2.8,0,5,2.2,5,5V175z"/>
	</g>
</g>
</svg>
