<svg xmlns="http://www.w3.org/2000/svg" viewBox="0 0 289.18 289.18"><g id="Layer_2" data-name="Layer 2"><g id="Layer_1-2" data-name="Layer 1"><circle cx="253.04" cy="108.44" r="7.23"/><circle cx="224.12" cy="108.44" r="7.23"/><path d="M159.05,72.3V86.76H274.73V245.81H260.27V225.42L188,211V166.28a21.69,21.69,0,0,0-43.38,0v79.53H14.46V137.36H0V260.27H144.59v28.91h14.46V166.28a7.23,7.23,0,0,1,14.46,0v56.54l72.3,14.46v51.9h14.46V260.27h28.91V72.3Z"/><path d="M23.13,125.22a78,78,0,0,0,13,9.68,72.37,72.37,0,0,0,36,9.69,71,71,0,0,0,36-9.69,66.07,66.07,0,0,0,13-9.68,72.15,72.15,0,1,0-98,0Zm49.17,4.91a57.48,57.48,0,0,1-32-9.68,36.16,36.16,0,0,1,63.91,0A57.47,57.47,0,0,1,72.3,130.13ZM50.61,65.07A21.69,21.69,0,1,1,72.3,86.76,21.66,21.66,0,0,1,50.61,65.07ZM72.3,14.46a57.85,57.85,0,0,1,43.08,96.44A52.21,52.21,0,0,0,95.72,92.54a36.15,36.15,0,1,0-46.85,0A50,50,0,0,0,29.21,110.9,57.85,57.85,0,0,1,72.3,14.46Z"/></g></g></svg>