<svg width="22" height="29" viewBox="0 0 22 29" fill="none" xmlns="http://www.w3.org/2000/svg">
<path d="M11.1247 2.92857C12.1259 2.92857 13.1047 3.21134 13.9372 3.74113C14.7698 4.27091 15.4187 5.02392 15.8018 5.90492C16.185 6.78592 16.2852 7.75535 16.0899 8.69061C15.8946 9.62588 15.4124 10.485 14.7044 11.1593C13.9964 11.8336 13.0943 12.2928 12.1123 12.4788C11.1303 12.6648 10.1124 12.5693 9.18731 12.2044C8.26225 11.8395 7.47159 11.2215 6.91531 10.4286C6.35904 9.63576 6.06212 8.70359 6.06212 7.75C6.06212 6.47128 6.5955 5.24493 7.54491 4.34074C8.49431 3.43654 9.78199 2.92857 11.1247 2.92857ZM11.1247 1C9.72287 1 8.35257 1.39588 7.18703 2.13758C6.02149 2.87928 5.11306 3.93349 4.57662 5.16689C4.04018 6.40029 3.89982 7.75749 4.1733 9.06686C4.44677 10.3762 5.1218 11.579 6.11301 12.523C7.10422 13.467 8.36709 14.1098 9.74194 14.3703C11.1168 14.6308 12.5419 14.4971 13.8369 13.9862C15.132 13.4753 16.2389 12.6101 17.0177 11.5001C17.7965 10.3901 18.2122 9.08502 18.2122 7.75C18.2122 5.95979 17.4655 4.2429 16.1363 2.97703C14.8071 1.71116 13.0044 1 11.1247 1Z" fill="black" stroke="white" stroke-width="0.3"/>
<path d="M21.25 27.9992H19.225V23.1777C19.225 21.899 18.6916 20.6727 17.7422 19.7685C16.7928 18.8643 15.5052 18.3563 14.1625 18.3563H8.0875C6.74484 18.3563 5.45718 18.8643 4.50777 19.7685C3.55837 20.6727 3.025 21.899 3.025 23.1777V27.9992H1V23.1777C1 21.3875 1.74672 19.6706 3.07588 18.4048C4.40504 17.1389 6.20778 16.4277 8.0875 16.4277H14.1625C16.0422 16.4277 17.845 17.1389 19.1741 18.4048C20.5033 19.6706 21.25 21.3875 21.25 23.1777V27.9992Z" fill="black" stroke="white" stroke-width="0.3"/>
</svg>
