<svg xmlns="http://www.w3.org/2000/svg" viewBox="0 0 297.08 297.56"><g id="Layer_2" data-name="Layer 2"><g id="Layer_1-2" data-name="Layer 1"><circle cx="243.81" cy="54.46" r="52.44"/><circle cx="53.14" cy="245.13" r="52.44"/><circle cx="223.81" cy="223.58" r="73.28"/><circle cx="73.28" cy="73.28" r="73.28"/><path d="M252.12,178.84l-73.28,73.27-28.41-28.4c.08-1.33.11-2.66.11-4a73.28,73.28,0,0,0-73.28-73.28c-1.33,0-2.67,0-4,.11L44.86,118.13l73.27-73.27,28.42,28.41c-.07,1.29-.1,2.57-.1,3.87a73.28,73.28,0,0,0,73.28,73.28c1.3,0,2.58,0,3.87-.1Z"/></g></g></svg>