<svg xmlns="http://www.w3.org/2000/svg" viewBox="0 0 315.98 315.98"><g id="Layer_2" data-name="Layer 2"><g id="Layer_1-2" data-name="Layer 1"><path d="M108.51,35.59A121,121,0,0,0,80.15,80.14,121.41,121.41,0,0,1,103,74.32,103.26,103.26,0,0,1,121.71,48.8,102.87,102.87,0,1,1,241.67,213a123.26,123.26,0,0,1-5.82,22.86A121.55,121.55,0,1,0,108.51,35.59Z"/><path d="M235.85,235.84A121.54,121.54,0,1,1,80.15,80.14a121.59,121.59,0,0,0,155.7,155.7Z"/><path d="M207.48,108.5A121.39,121.39,0,0,1,241.67,213,103,103,0,0,1,103,74.32,121.35,121.35,0,0,1,207.48,108.5Z"/></g></g></svg>