<svg width="27" height="27" viewBox="0 0 27 27" fill="none" xmlns="http://www.w3.org/2000/svg">
<path d="M11.0857 22.1724C4.94592 22.1724 0 17.2262 0 11.0862C0 4.94614 4.94592 0 11.0857 0C17.2254 0 22.1714 4.94614 22.1714 11.0862C22.1714 17.2262 17.2254 22.1724 11.0857 22.1724ZM11.0857 1.70557C5.88394 1.70557 1.70549 5.8842 1.70549 11.0862C1.70549 16.2882 5.88394 20.4668 11.0857 20.4668C16.2874 20.4668 20.4659 16.2882 20.4659 11.0862C20.4659 5.8842 16.2874 1.70557 11.0857 1.70557Z" fill="black"/>
<path d="M19.3415 18.1367L26.9992 25.7947L25.7934 27.0005L18.1357 19.3426L19.3415 18.1367Z" fill="black"/>
</svg>
