<svg xmlns="http://www.w3.org/2000/svg" viewBox="0 0 285.61 228.49"><g id="Layer_2" data-name="Layer 2"><g id="Layer_1-2" data-name="Layer 1"><path d="M0,0V228.49H285.61V0ZM271.33,214.21h-257V14.28H271.33Z"/><polygon points="42.84 42.84 71.4 42.84 71.4 28.56 28.56 28.56 28.56 71.4 42.84 71.4 42.84 42.84"/><polygon points="257.05 157.09 242.77 157.09 242.77 185.65 214.21 185.65 214.21 199.93 257.05 199.93 257.05 157.09"/><polygon points="71.4 185.65 42.84 185.65 42.84 157.09 28.56 157.09 28.56 199.93 71.4 199.93 71.4 185.65"/><polygon points="242.77 71.4 257.05 71.4 257.05 28.56 214.21 28.56 214.21 42.84 242.77 42.84 242.77 71.4"/><polygon points="114.24 64.26 114.24 164.23 185.65 114.24 114.24 64.26"/></g></g></svg>