<svg width="1000" height="600" viewBox="0 0 1000 600" fill="none" xmlns="http://www.w3.org/2000/svg">
<mask id="mask0" mask-type="alpha" maskUnits="userSpaceOnUse" x="0" y="0" width="1000" height="600">
<rect width="1000" height="600" fill="#C4C4C4"/>
</mask>
<g mask="url(#mask0)">
<path d="M-100 0V600H1100V0H-100Z" fill="#012169"/>
<path d="M-100 0L1100 600L-100 0ZM1100 0L-100 600Z" fill="black"/>
<path d="M1100 0L-100 600M-100 0L1100 600L-100 0Z" stroke="white" stroke-width="120"/>
<path d="M-100 0L1100 600L-100 0ZM1100 0L-100 600Z" fill="black"/>
<path d="M1100 0L-100 600M-100 0L1100 600L-100 0Z" stroke="#C8102E" stroke-width="80"/>
<path d="M500 0V600V0ZM-100 300H1100Z" fill="black"/>
<path d="M-100 300H1100M500 0V600V0Z" stroke="white" stroke-width="200"/>
<path d="M500 0V600V0ZM-100 300H1100Z" fill="black"/>
<path d="M-100 300H1100M500 0V600V0Z" stroke="#C8102E" stroke-width="120"/>
</g>
</svg>
