<svg xmlns="http://www.w3.org/2000/svg" viewBox="0 0 341.22 341.28"><g id="Layer_2" data-name="Layer 2"><g id="Layer_1-2" data-name="Layer 1"><path d="M170.6,341.25V310C247.47,310,310,247.5,310,170.63S247.47,31.21,170.6,31.21V0c94.08,0,170.62,76.54,170.62,170.63S264.68,341.25,170.6,341.25Z"/><path d="M170.63,341.28c-1.23,0-2.46,0-3.69,0l.67-31.2c1,0,2,0,3,0Z"/><path d="M152,340.27c-2.43-.26-4.88-.58-7.28-.94l4.7-30.86c2,.3,4,.56,6,.78Zm-22-3.86c-2.36-.57-4.74-1.21-7.08-1.89l8.7-30c1.91.56,3.86,1.08,5.79,1.55Zm-21.29-6.71c-2.27-.89-4.56-1.83-6.8-2.82l12.58-28.56c1.82.8,3.69,1.58,5.54,2.3Zm-20.24-9.46c-2.12-1.17-4.26-2.41-6.35-3.68l16.2-26.67c1.71,1,3.46,2.05,5.2,3Zm-18.81-12c-2-1.44-3.92-3-5.82-4.47l19.54-24.33c1.56,1.25,3.16,2.48,4.76,3.65ZM52.59,293.87c-1.75-1.68-3.49-3.42-5.18-5.18l22.53-21.6c1.38,1.44,2.81,2.87,4.24,4.24ZM37.53,277.42c-1.52-1.88-3-3.84-4.47-5.81L58.2,253.13c1.19,1.61,2.42,3.21,3.66,4.75ZM24.72,259.16c-1.25-2.07-2.49-4.2-3.67-6.34l27.34-15.06c1,1.76,2,3.5,3,5.19ZM14.41,239.38c-1-2.24-1.93-4.51-2.81-6.77l29.08-11.33c.72,1.84,1.49,3.7,2.29,5.52Zm-7.63-21c-.68-2.34-1.32-4.72-1.9-7.08l30.31-7.42c.47,1.92,1,3.87,1.55,5.79ZM2,196.62c-.38-2.42-.7-4.87-1-7.28L32,186c.21,2,.47,4,.77,5.93ZM0,174.4c0-1.24,0-2.49,0-3.74s0-2.39,0-3.58l31.2.64q0,1.47,0,2.94c0,1,0,2.05,0,3.08Zm32-18.91L1,152.14c.27-2.42.58-4.87,1-7.27l30.85,4.67C32.5,151.51,32.23,153.51,32,155.49Zm3.14-18L4.84,130.16c.58-2.38,1.21-4.77,1.89-7.1l30,8.7C36.15,133.66,35.63,135.6,35.16,137.54Zm5.47-17.38L11.54,108.85c.88-2.27,1.83-4.55,2.81-6.79l28.58,12.55C42.12,116.44,41.35,118.31,40.63,120.16Zm7.71-16.53L21,88.61c1.17-2.14,2.41-4.28,3.67-6.36L51.34,98.44C50.31,100.14,49.3,101.89,48.34,103.63Zm9.81-15.38L33,69.79c1.45-2,2.95-3.93,4.48-5.83L61.8,83.5C60.56,85.05,59.33,86.65,58.15,88.25Zm11.74-14L47.34,52.7c1.68-1.76,3.43-3.51,5.18-5.19L74.12,70C72.69,71.41,71.26,72.84,69.89,74.28ZM83.33,61.94,63.77,37.62c1.9-1.52,3.85-3,5.81-4.47l18.5,25.14C86.48,59.47,84.88,60.7,83.33,61.94ZM98.25,51.47,82,24.81c2.07-1.26,4.2-2.5,6.33-3.67l15.07,27.33C101.69,49.43,100,50.44,98.25,51.47ZM114.4,43,101.8,14.48c2.22-1,4.49-1.92,6.76-2.81l11.36,29.07C118.07,41.46,116.21,42.24,114.4,43Zm17.1-6.23-8.74-30c2.33-.68,4.72-1.32,7.09-1.9l7.43,30.31C135.35,35.72,133.41,36.24,131.5,36.8Zm17.79-3.94L144.55,2c2.4-.37,4.85-.69,7.27-1l3.41,31C153.25,32.29,151.25,32.56,149.29,32.86Z"/><path d="M167.61,31.27,166.94.07c1.23,0,2.46,0,3.69,0V31.24C169.62,31.24,168.61,31.25,167.61,31.27Z"/></g></g></svg>