<svg xmlns="http://www.w3.org/2000/svg" viewBox="0 0 293.37 293.91"><g id="Layer_2" data-name="Layer 2"><g id="Layer_1-2" data-name="Layer 1"><rect y="158.97" width="134.67" height="134.94" rx="21.41"/><path d="M113.27,10a11.42,11.42,0,0,1,11.4,11.41v92.12a11.42,11.42,0,0,1-11.4,11.41H21.41A11.42,11.42,0,0,1,10,113.53V21.41A11.42,11.42,0,0,1,21.41,10h91.86m0-10H21.41A21.4,21.4,0,0,0,0,21.41v92.12a21.4,21.4,0,0,0,21.41,21.41h91.86a21.4,21.4,0,0,0,21.4-21.41V21.41A21.4,21.4,0,0,0,113.27,0Z"/><rect x="158.7" width="134.67" height="134.94" rx="21.41"/><path d="M272,169a11.42,11.42,0,0,1,11.41,11.4V272.5A11.42,11.42,0,0,1,272,283.91H180.1a11.42,11.42,0,0,1-11.4-11.41V180.37A11.41,11.41,0,0,1,180.1,169H272m0-10H180.1a21.4,21.4,0,0,0-21.4,21.4V272.5a21.41,21.41,0,0,0,21.4,21.41H272a21.42,21.42,0,0,0,21.41-21.41V180.37A21.41,21.41,0,0,0,272,159Z"/></g></g></svg>