<?xml version="1.0" encoding="utf-8"?>
<!-- Generator: Adobe Illustrator 20.1.0, SVG Export Plug-In . SVG Version: 6.00 Build 0)  -->
<svg version="1.1" id="Layer_1" xmlns="http://www.w3.org/2000/svg" xmlns:xlink="http://www.w3.org/1999/xlink" x="0px" y="0px"
	 viewBox="0 0 240 240" style="enable-background:new 0 0 240 240;" xml:space="preserve">
<g>
	<path d="M20,80v70h18.3L30,200h40l8.3-50H80l90,40V40L80,80H20z M30,90h45v49.9H30V90z M61.5,190H41.8l6.7-40h19.7L61.5,190z
		 M160,174.6l-75-33.4V88.7l75-33.3V174.6z"/>
	<rect x="188.8" y="60" transform="matrix(0.8944 -0.4473 0.4473 0.8944 -7.953 96.314)" width="22.4" height="10"/>
	<rect x="195" y="153.8" transform="matrix(0.4472 -0.8944 0.8944 0.4472 -37.0232 270.0952)" width="10" height="22.4"/>
	<rect x="190" y="110" width="30" height="10"/>
</g>
</svg>
