<?xml version="1.0" encoding="utf-8"?>
<!-- Generator: Adobe Illustrator 20.1.0, SVG Export Plug-In . SVG Version: 6.00 Build 0)  -->
<svg version="1.1" id="Layer_1" xmlns="http://www.w3.org/2000/svg" xmlns:xlink="http://www.w3.org/1999/xlink" x="0px" y="0px"
	 viewBox="0 0 240 240" style="enable-background:new 0 0 240 240;" xml:space="preserve">
<path d="M180,140c-13.5,0-25.9,6.7-33.2,17.8L115,141.9c3.3-6.8,5-14.3,5-21.9c0-7.6-1.7-15.1-5-21.9l31.8-15.9
	c7.4,11.1,19.7,17.8,33.2,17.8c22.1,0,40-17.9,40-40s-17.9-40-40-40s-40,17.9-40,40c0,4.6,0.8,9,2.3,13.3l-32.6,16.3
	C100.2,77.3,85.7,70,70,70c-27.6,0-50,22.4-50,50s22.4,50,50,50c15.7,0,30.2-7.3,39.6-19.6l32.6,16.3c-1.5,4.2-2.3,8.7-2.3,13.3
	c0,22.1,17.9,40,40,40s40-17.9,40-40S202.1,140,180,140z M163.4,85c4.9-3.2,10.6-5,16.6-5c6,0,11.7,1.7,16.6,5
	c-4.8,3.2-10.5,5-16.6,5C173.9,90,168.2,88.2,163.4,85z M170,60c0-5.5,4.5-10,10-10s10,4.5,10,10s-4.5,10-10,10S170,65.5,170,60z
	 M180,30c16.5,0,30,13.5,30,30c0,6.7-2.2,13-6,18c-2.7-2.1-5.7-3.7-8.8-5c3-3.5,4.8-8,4.8-13c0-11-9-20-20-20s-20,9-20,20
	c0,4.9,1.8,9.5,4.8,13c-3.1,1.3-6.1,3-8.8,5c-1.1-1.4-2-2.9-2.8-4.6c-2.1-4.2-3.2-8.7-3.2-13.4C150,43.5,163.5,30,180,30z
	 M103.8,98.7c4,6.4,6.2,13.8,6.2,21.3c0,7.6-2.1,15-6.2,21.3c-0.8,1.3-1.7,2.6-2.7,3.7c-4.2-3.4-9-6-14-7.9
	c4.4-4.4,7.2-10.5,7.2-17.2c0-13.4-10.9-24.3-24.3-24.3S45.7,106.6,45.7,120c0,6.7,2.8,12.8,7.2,17.2c-5,1.8-9.7,4.5-14,7.9
	c-5.6-6.9-8.9-15.6-8.9-25.1c0-22.1,17.9-40,40-40C83.8,80,96.4,87,103.8,98.7 M70,134.2c-0.4,0-0.9,0-1.3,0
	c-7.3-0.7-13-6.8-13-14.2c0-7.9,6.4-14.3,14.3-14.3s14.3,6.4,14.3,14.3c0,7.4-5.7,13.6-13,14.2C70.9,134.2,70.4,134.2,70,134.2z
	 M46.2,152.1c6.5-4.8,14.1-7.5,22.2-7.9c0.5,0,1.1,0.1,1.6,0.1c0.5,0,1.1,0,1.6-0.1c8.1,0.3,15.8,3.1,22.2,7.9
	c-6.8,5.1-15.1,7.9-23.9,7.9C61.1,160,52.8,157.1,46.2,152.1z M163.4,205c4.9-3.2,10.6-5,16.6-5s11.7,1.7,16.6,5
	c-4.8,3.2-10.5,5-16.6,5S168.2,208.1,163.4,205z M170,180c0-5.5,4.5-10,10-10s10,4.5,10,10s-4.5,10-10,10S170,185.5,170,180z
	 M204,198c-2.7-2.1-5.7-3.7-8.8-5c3-3.5,4.8-8,4.8-13c0-11-9-20-20-20s-20,9-20,20c0,4.9,1.8,9.5,4.8,13c-3.1,1.3-6.1,3-8.8,5
	c-3.8-5-6-11.2-6-18c0-4.7,1.1-9.2,3.2-13.4v0c5.1-10.2,15.4-16.6,26.8-16.6c16.5,0,30,13.5,30,30C210,186.7,207.8,193,204,198z"/>
</svg>
