<svg xmlns="http://www.w3.org/2000/svg" viewBox="0 0 326.73 326.73"><g id="Layer_2" data-name="Layer 2"><g id="Layer_1-2" data-name="Layer 1"><circle cx="162.69" cy="163.75" r="100.61"/><path d="M100.05,36.31a143,143,0,0,0-19.89,12L67.71,30.94a163.52,163.52,0,0,1,191.17-.11L246.37,48.17A141.87,141.87,0,0,0,100.05,36.31Z"/><path d="M36.31,226.68A141.71,141.71,0,0,0,48,246.11L30.6,258.56a164,164,0,0,1-13.42-22.34A163.46,163.46,0,0,1,30.52,68.3L47.85,80.81A141.86,141.86,0,0,0,36.31,226.68Z"/><path d="M295.44,259.52,278.1,247a142.2,142.2,0,0,0,.76-166.22l17.39-12.45a164.66,164.66,0,0,1,13.31,22.18,163.52,163.52,0,0,1-14.12,169Z"/><path d="M245.48,279.19l12.45,17.39a164.76,164.76,0,0,1-21.71,13,163.56,163.56,0,0,1-168.57-13.8l12.52-17.34a142.22,142.22,0,0,0,165.31.77Z"/><circle cx="271.32" cy="55.39" r="10.95"/><circle cx="55.39" cy="271.32" r="10.95"/><circle cx="55.12" cy="55.66" r="10.95"/><circle cx="271.05" cy="271.59" r="10.95"/></g></g></svg>