<svg xmlns="http://www.w3.org/2000/svg" viewBox="0 0 327.24 245.43"><g id="Layer_2" data-name="Layer 2"><g id="Layer_1-2" data-name="Layer 1"><path d="M141.53,120.59a65.45,65.45,0,1,0-70.36,0A106.48,106.48,0,0,0,0,220.88v24.55H16.36V220.88a90,90,0,0,1,180,0v24.55H212.7V220.88A106.48,106.48,0,0,0,141.53,120.59Zm-35.18-6.06a49.09,49.09,0,1,1,49.09-49.08A49.22,49.22,0,0,1,106.35,114.53Z"/><path d="M275.7,136.78a49.09,49.09,0,1,0-60.54,0,96,96,0,0,0-13.58,6.88,133.43,133.43,0,0,1,9.49,13.41,65.36,65.36,0,0,1,99.8,55.63v32.73h16.37V212.7A81.47,81.47,0,0,0,275.7,136.78Zm-30.27-5.89a32.72,32.72,0,1,1,32.72-32.72A32.82,32.82,0,0,1,245.43,130.89Z"/></g></g></svg>