<?xml version="1.0" encoding="utf-8"?>
<!-- Generator: Adobe Illustrator 20.1.0, SVG Export Plug-In . SVG Version: 6.00 Build 0)  -->
<svg version="1.1" id="Layer_1" xmlns="http://www.w3.org/2000/svg" xmlns:xlink="http://www.w3.org/1999/xlink" x="0px" y="0px"
	 viewBox="0 0 240 240" style="enable-background:new 0 0 240 240;" xml:space="preserve">
<g>
	<g>
		<path d="M148.9,130.6c-3.4-2.8-7.2-5.2-11.3-7c6-5,9.9-12.6,9.9-21.1c0-15.2-12.3-27.5-27.5-27.5s-27.5,12.3-27.5,27.5
			c0,8.5,3.8,16,9.9,21.1c-4.1,1.8-7.9,4.1-11.3,7c2.4,2.3,4.5,4.9,6.2,7.8c6.1-5.2,14.1-8.4,22.7-8.4c8.6,0,16.6,3.2,22.7,8.4
			C144.4,135.5,146.5,132.9,148.9,130.6z M120,120c-9.6,0-17.5-7.9-17.5-17.5S110.4,85,120,85c9.6,0,17.5,7.9,17.5,17.5
			S129.6,120,120,120z"/>
		<path d="M82.5,178.6c6-5,9.9-12.6,9.9-21.1c0-15.2-12.3-27.5-27.5-27.5s-27.5,12.3-27.5,27.5c0,8.5,3.8,16,9.9,21.1
			C31.2,185.5,20,201.4,20,220h10c0-19.3,15.7-35,35-35s35,15.7,35,35h10C110,201.4,98.7,185.5,82.5,178.6z M65,175
			c-9.6,0-17.5-7.9-17.5-17.5c0-9.6,7.9-17.5,17.5-17.5s17.5,7.9,17.5,17.5C82.5,167.1,74.5,175,65,175z"/>
		<path d="M192.6,178.6c6-5,9.9-12.6,9.9-21.1c0-15.2-12.3-27.5-27.5-27.5s-27.5,12.3-27.5,27.5c0,8.5,3.8,16,9.9,21.1
			c-16.1,6.9-27.4,22.8-27.4,41.4h10c0-19.3,15.7-35,35-35s35,15.7,35,35h10C220,201.4,208.7,185.5,192.6,178.6z M175,175
			c-9.6,0-17.5-7.9-17.5-17.5c0-9.6,7.9-17.5,17.5-17.5c9.6,0,17.5,7.9,17.5,17.5C192.5,167.1,184.6,175,175,175z"/>
		<path d="M65,75c9.6,0,18.3,3.9,24.7,10.2c1.6-2.9,3.7-5.6,6.1-7.9c-3.8-3.6-8.3-6.6-13.2-8.7c6-5,9.9-12.6,9.9-21.1
			C92.5,32.3,80.2,20,65,20S37.5,32.3,37.5,47.5c0,8.5,3.8,16,9.9,21.1C31.2,75.5,20,91.4,20,110h10C30,90.7,45.7,75,65,75z M65,30
			c9.6,0,17.5,7.9,17.5,17.5S74.5,65,65,65s-17.5-7.9-17.5-17.5S55.4,30,65,30z"/>
		<path d="M150.4,85.2c6.3-6.3,15-10.2,24.7-10.2c19.3,0,35,15.7,35,35h10c-0.1-18.6-11.4-34.5-27.5-41.4c6-5,9.9-12.6,9.9-21.1
			c0-15.2-12.3-27.5-27.5-27.5s-27.5,12.3-27.5,27.5c0,8.5,3.8,16,9.9,21.1c-4.9,2.1-9.4,5.1-13.2,8.7
			C146.5,79.6,148.7,82.3,150.4,85.2z M175,30c9.6,0,17.5,7.9,17.5,17.5S184.6,65,175,65c-9.6,0-17.5-7.9-17.5-17.5S165.4,30,175,30
			z"/>
	</g>
</g>
</svg>
