<svg xmlns="http://www.w3.org/2000/svg" viewBox="0 0 266.32 266.32"><g id="Layer_2" data-name="Layer 2"><g id="Layer_1-2" data-name="Layer 1"><path d="M133.16,0C59.79,0,0,59.79,0,133.16S59.79,266.32,133.16,266.32s133.16-59.79,133.16-133.16S206.53,0,133.16,0Zm0,251.54c-13.45-9.86-24.64-25.7-32.76-45.14h65.38C157.79,225.84,146.61,241.68,133.16,251.54ZM95.61,193.08a198.48,198.48,0,0,1-8.92-53.26h92.94a198.88,198.88,0,0,1-8.92,53.26ZM13.45,139.82H73.24a206.6,206.6,0,0,0,8.25,53.26H29.43A119,119,0,0,1,13.45,139.82Zm119.71-125c13.45,9.85,24.63,25.7,32.76,45.14H100.4C108.52,40.48,119.71,24.63,133.16,14.78Zm37.55,58.46a198.81,198.81,0,0,1,8.92,53.26H86.69a198.42,198.42,0,0,1,8.92-53.26ZM73.37,126.5H13.45A119,119,0,0,1,29.29,73.24h52.2A212.38,212.38,0,0,0,73.37,126.5ZM193,139.82h59.79a119,119,0,0,1-15.85,53.26h-52.2A206.59,206.59,0,0,0,193,139.82Zm0-13.32a206.59,206.59,0,0,0-8.26-53.26h52.2a119,119,0,0,1,15.85,53.26Zm35-66.58H180.3c-6.66-17.71-15.85-33.16-26.9-44.87A119.72,119.72,0,0,1,228,59.92Zm-115-44.87c-11,11.71-20.24,27.16-26.9,44.87H38.35A119.72,119.72,0,0,1,112.92,15.05ZM38.35,206.4H86c6.66,17.71,15.85,33.15,26.9,44.87A119.72,119.72,0,0,1,38.35,206.4ZM153.4,251.27c11-11.72,20.24-27.16,26.9-44.87H228A119.72,119.72,0,0,1,153.4,251.27Z"/></g></g></svg>